HIERARCHY
ROOT Hips
{
	OFFSET 0.000000 0.000000 0.000000
	CHANNELS 6 Xposition Yposition Zposition Xrotation Yrotation Zrotation
	JOINT LeftUpLeg_virtual
	{
		OFFSET 0.000000 0.000000 0.000000
		CHANNELS 3 Xrotation Yrotation Zrotation
		JOINT LeftUpLeg
		{
			OFFSET 11.394100 -6.187798 -0.413800
			CHANNELS 3 Xrotation Yrotation Zrotation
			JOINT LeftLeg
			{
				OFFSET 0.430247 -32.302673 3.732800
				CHANNELS 3 Xrotation Yrotation Zrotation
				JOINT LeftFoot
				{
					OFFSET -0.430247 -48.264931 -6.423300
					CHANNELS 3 Xrotation Yrotation Zrotation
					JOINT LeftToeBase
					{
						OFFSET 4.230900 -16.068199 23.438400
						CHANNELS 3 Xrotation Yrotation Zrotation
						JOINT LeftToe_End
						{
							OFFSET 4.510700 0.695400 19.974600
							CHANNELS 3 Xrotation Yrotation Zrotation
							End Site
							{
								OFFSET 0 0 0
							}
						}
					}
				}
			}
		}
	}
	JOINT RightUpLeg_virtual
	{
		OFFSET 0.000000 0.000000 0.000000
		CHANNELS 3 Xrotation Yrotation Zrotation
		JOINT RightUpLeg
		{
			OFFSET -11.333700 -6.187798 -0.413800
			CHANNELS 3 Xrotation Yrotation Zrotation
			JOINT RightLeg
			{
				OFFSET -0.430392 -32.302628 3.733000
				CHANNELS 3 Xrotation Yrotation Zrotation
				JOINT RightFoot
				{
					OFFSET 0.430392 -48.264973 -6.423500
					CHANNELS 3 Xrotation Yrotation Zrotation
					JOINT RightToeBase
					{
						OFFSET -4.230900 -16.068199 23.438400
						CHANNELS 3 Xrotation Yrotation Zrotation
						JOINT RightToe_End
						{
							OFFSET -4.510700 0.695400 19.974600
							CHANNELS 3 Xrotation Yrotation Zrotation
							End Site
							{
								OFFSET 0 0 0
							}
						}
					}
				}
			}
		}
	}
	JOINT Spine_virtual
	{
		OFFSET 0.000000 0.000000 0.000000
		CHANNELS 3 Xrotation Yrotation Zrotation
		JOINT Spine
		{
			OFFSET -0.002400 12.777504 0.315300
			CHANNELS 3 Xrotation Yrotation Zrotation
			JOINT Spine1
			{
				OFFSET -0.002067 5.816869 0.032633
				CHANNELS 3 Xrotation Yrotation Zrotation
				JOINT Spine1_split
				{
					OFFSET -0.002067 5.816869 0.032633
					CHANNELS 3 Xrotation Yrotation Zrotation
					JOINT Spine2
					{
						OFFSET -0.002067 5.816869 0.032633
						CHANNELS 3 Xrotation Yrotation Zrotation
						JOINT Neck_virtual
						{
							OFFSET 0.000000 0.000000 0.000000
							CHANNELS 3 Xrotation Yrotation Zrotation
							JOINT Neck
							{
								OFFSET -0.003700 21.199493 -0.826900
								CHANNELS 3 Xrotation Yrotation Zrotation
								JOINT Head
								{
									OFFSET 0.000000 20.442200 4.834800
									CHANNELS 3 Xrotation Yrotation Zrotation
									JOINT HeadTop_End
									{
										OFFSET 0.000000 34.668396 4.968400
										CHANNELS 3 Xrotation Yrotation Zrotation
										End Site
										{
											OFFSET 0 0 0
										}
									}
								}
							}
						}
						JOINT LeftShoulder_virtual
						{
							OFFSET 0.000000 0.000000 0.000000
							CHANNELS 3 Xrotation Yrotation Zrotation
							JOINT LeftShoulder
							{
								OFFSET 3.288150 8.794197 -1.372250
								CHANNELS 3 Xrotation Yrotation Zrotation
								JOINT LeftShoulder_split
								{
									OFFSET 3.288150 8.794197 -1.372250
									CHANNELS 3 Xrotation Yrotation Zrotation
									JOINT LeftArm
									{
										OFFSET 11.953299 -2.279007 -0.146200
										CHANNELS 3 Xrotation Yrotation Zrotation
										JOINT LeftForeArm
										{
											OFFSET 18.448900 0.000000 0.000000
											CHANNELS 3 Xrotation Yrotation Zrotation
											JOINT LeftHand
											{
												OFFSET 29.527798 0.000000 0.000000
												CHANNELS 3 Xrotation Yrotation Zrotation
												End Site
												{
													OFFSET 0 0 0
												}
											}
										}
									}
								}
							}
						}
						JOINT RightShoulder_virtual
						{
							OFFSET 0.000000 0.000000 0.000000
							CHANNELS 3 Xrotation Yrotation Zrotation
							JOINT RightShoulder
							{
								OFFSET -3.249400 8.794197 -1.372250
								CHANNELS 3 Xrotation Yrotation Zrotation
								JOINT RightShoulder_split
								{
									OFFSET -3.249400 8.794197 -1.372250
									CHANNELS 3 Xrotation Yrotation Zrotation
									JOINT RightArm
									{
										OFFSET -11.953299 -2.279007 -0.146200
										CHANNELS 3 Xrotation Yrotation Zrotation
										JOINT RightForeArm
										{
											OFFSET -18.448900 0.000000 0.000000
											CHANNELS 3 Xrotation Yrotation Zrotation
											JOINT RightHand
											{
												OFFSET -29.527802 0.000000 0.000000
												CHANNELS 3 Xrotation Yrotation Zrotation
												End Site
												{
													OFFSET 0 0 0
												}
											}
										}
									}
								}
							}
						}
					}
				}
			}
		}
	}
}
MOTION
Frames: 8
Frame Time: 0.03333333
-1.162080 82.319229 -119.893860 0.000000 0.000000 0.000000 156.710658 -80.719620 153.974239 -48.462962 -15.165014 33.265685 25.946738 -9.014743 -0.483369 28.542355 1.754311 -2.455677 -1.646478 0.135028 -4.415348 0.000000 0.000000 0.000000 156.710658 -80.719620 153.974239 -57.611068 4.922235 -22.829165 63.129055 2.070821 -0.062699 -3.405970 -0.740215 8.854731 -6.361752 -0.000028 -0.000004 0.000000 0.000000 0.000000 156.710658 -80.719620 153.974239 4.748040 11.443482 -1.349907 5.648440 6.889298 -0.879003 0.000000 0.000000 0.000000 0.000000 0.000000 0.000000 4.702461 17.214672 0.847258 7.086023 5.084720 -5.374690 -9.934682 17.069770 4.183230 0.000000 0.000000 0.000000 4.702461 17.214672 0.847258 4.482666 5.962519 -14.443022 0.000000 0.000000 0.000000 -53.614823 -34.544617 -49.032719 0.000064 -80.971018 0.000051 0.000000 0.000000 0.000000 4.702461 17.214672 0.847258 -14.733258 5.625433 -4.243749 0.000000 0.000000 0.000000 -103.836982 41.709353 125.051488 0.000005 29.459156 0.000002 0.000000 0.000000 0.000000 
2.157255 83.287262 -128.351318 0.000000 0.000000 0.000000 153.856855 -81.643580 148.296685 -55.263740 -17.330855 30.261133 35.370418 -7.362225 -0.227850 25.082038 0.199789 -5.669392 -1.075284 0.052317 -2.786051 0.000000 0.000000 0.000000 153.856855 -81.643580 148.296685 -60.902092 0.168418 -15.754668 65.557904 0.342482 -0.099250 0.161624 -0.503595 9.688663 -10.399929 0.000001 0.000004 0.000000 0.000000 0.000000 153.856855 -81.643580 148.296685 4.907782 10.813801 0.446760 6.079592 5.798286 -0.521031 0.000000 0.000000 0.000000 0.000000 0.000000 0.000000 5.085131 16.136091 1.189172 6.289636 5.421245 -4.908948 -11.393614 17.889724 5.359085 0.000000 0.000000 0.000000 5.085131 16.136091 1.189172 3.544246 4.756020 -11.623019 0.000000 0.000000 0.000000 -54.038841 -33.116452 -50.381552 -0.000050 -81.882384 -0.000089 0.000000 0.000000 0.000000 5.085131 16.136091 1.189172 -14.733702 2.115986 -4.463088 0.000000 0.000000 0.000000 -107.662462 41.165939 127.346500 0.000023 29.080678 -0.000021 0.000000 0.000000 0.000000 
2.157255 83.287262 -128.351318 0.000000 0.000000 0.000000 153.856855 -81.643580 148.296685 -55.263740 -17.330855 30.261133 35.370418 -7.362225 -0.227850 25.082038 0.199789 -5.669392 -1.075284 0.052317 -2.786051 0.000000 0.000000 0.000000 153.856855 -81.643580 148.296685 -60.902092 0.168418 -15.754668 65.557904 0.342482 -0.099250 0.161624 -0.503595 9.688663 -10.399929 0.000001 0.000004 0.000000 0.000000 0.000000 153.856855 -81.643580 148.296685 4.907782 10.813801 0.446760 6.079592 5.798286 -0.521031 0.000000 0.000000 0.000000 0.000000 0.000000 0.000000 5.085131 16.136091 1.189172 6.289636 5.421245 -4.908948 -11.393614 17.889724 5.359085 0.000000 0.000000 0.000000 5.085131 16.136091 1.189172 3.544246 4.756020 -11.623019 0.000000 0.000000 0.000000 -54.038841 -33.116452 -50.381552 -0.000050 -81.882384 -0.000089 0.000000 0.000000 0.000000 5.085131 16.136091 1.189172 -14.733702 2.115986 -4.463088 0.000000 0.000000 0.000000 -107.662462 41.165939 127.346500 0.000023 29.080678 -0.000021 0.000000 0.000000 0.000000 
2.157255 83.287262 -128.351318 0.000000 0.000000 0.000000 153.856855 -81.643580 148.296685 -55.263740 -17.330855 30.261133 35.370418 -7.362225 -0.227850 25.082038 0.199789 -5.669392 -1.075284 0.052317 -2.786051 0.000000 0.000000 0.000000 153.856855 -81.643580 148.296685 -60.902092 0.168418 -15.754668 65.557904 0.342482 -0.099250 0.161624 -0.503595 9.688663 -10.399929 0.000001 0.000004 0.000000 0.000000 0.000000 153.856855 -81.643580 148.296685 4.907782 10.813801 0.446760 6.079592 5.798286 -0.521031 0.000000 0.000000 0.000000 0.000000 0.000000 0.000000 5.085131 16.136091 1.189172 6.289636 5.421245 -4.908948 -11.393614 17.889724 5.359085 0.000000 0.000000 0.000000 5.085131 16.136091 1.189172 3.544246 4.756020 -11.623019 0.000000 0.000000 0.000000 -54.038841 -33.116452 -50.381552 -0.000050 -81.882384 -0.000089 0.000000 0.000000 0.000000 5.085131 16.136091 1.189172 -14.733702 2.115986 -4.463088 0.000000 0.000000 0.000000 -107.662462 41.165939 127.346500 0.000023 29.080678 -0.000021 0.000000 0.000000 0.000000 
2.157255 83.287262 -128.351318 0.000000 0.000000 0.000000 153.856855 -81.643580 148.296685 -55.263740 -17.330855 30.261133 35.370418 -7.362225 -0.227850 25.082038 0.199789 -5.669392 -1.075284 0.052317 -2.786051 0.000000 0.000000 0.000000 153.856855 -81.643580 148.296685 -60.902092 0.168418 -15.754668 65.557904 0.342482 -0.099250 0.161624 -0.503595 9.688663 -10.399929 0.000001 0.000004 0.000000 0.000000 0.000000 153.856855 -81.643580 148.296685 4.907782 10.813801 0.446760 6.079592 5.798286 -0.521031 0.000000 0.000000 0.000000 0.000000 0.000000 0.000000 5.085131 16.136091 1.189172 6.289636 5.421245 -4.908948 -11.393614 17.889724 5.359085 0.000000 0.000000 0.000000 5.085131 16.136091 1.189172 3.544246 4.756020 -11.623019 0.000000 0.000000 0.000000 -54.038841 -33.116452 -50.381552 -0.000050 -81.882384 -0.000089 0.000000 0.000000 0.000000 5.085131 16.136091 1.189172 -14.733702 2.115986 -4.463088 0.000000 0.000000 0.000000 -107.662462 41.165939 127.346500 0.000023 29.080678 -0.000021 0.000000 0.000000 0.000000 
2.157255 83.287262 -128.351318 0.000000 0.000000 0.000000 153.856855 -81.643580 148.296685 -55.263740 -17.330855 30.261133 35.370418 -7.362225 -0.227850 25.082038 0.199789 -5.669392 -1.075284 0.052317 -2.786051 0.000000 0.000000 0.000000 153.856855 -81.643580 148.296685 -60.902092 0.168418 -15.754668 65.557904 0.342482 -0.099250 0.161624 -0.503595 9.688663 -10.399929 0.000001 0.000004 0.000000 0.000000 0.000000 153.856855 -81.643580 148.296685 4.907782 10.813801 0.446760 6.079592 5.798286 -0.521031 0.000000 0.000000 0.000000 0.000000 0.000000 0.000000 5.085131 16.136091 1.189172 6.289636 5.421245 -4.908948 -11.393614 17.889724 5.359085 0.000000 0.000000 0.000000 5.085131 16.136091 1.189172 3.544246 4.756020 -11.623019 0.000000 0.000000 0.000000 -54.038841 -33.116452 -50.381552 -0.000050 -81.882384 -0.000089 0.000000 0.000000 0.000000 5.085131 16.136091 1.189172 -14.733702 2.115986 -4.463088 0.000000 0.000000 0.000000 -107.662462 41.165939 127.346500 0.000023 29.080678 -0.000021 0.000000 0.000000 0.000000 
2.157255 83.287262 -128.351318 0.000000 0.000000 0.000000 153.856855 -81.643580 148.296685 -55.263740 -17.330855 30.261133 35.370418 -7.362225 -0.227850 25.082038 0.199789 -5.669392 -1.075284 0.052317 -2.786051 0.000000 0.000000 0.000000 153.856855 -81.643580 148.296685 -60.902092 0.168418 -15.754668 65.557904 0.342482 -0.099250 0.161624 -0.503595 9.688663 -10.399929 0.000001 0.000004 0.000000 0.000000 0.000000 153.856855 -81.643580 148.296685 4.907782 10.813801 0.446760 6.079592 5.798286 -0.521031 0.000000 0.000000 0.000000 0.000000 0.000000 0.000000 5.085131 16.136091 1.189172 6.289636 5.421245 -4.908948 -11.393614 17.889724 5.359085 0.000000 0.000000 0.000000 5.085131 16.136091 1.189172 3.544246 4.756020 -11.623019 0.000000 0.000000 0.000000 -54.038841 -33.116452 -50.381552 -0.000050 -81.882384 -0.000089 0.000000 0.000000 0.000000 5.085131 16.136091 1.189172 -14.733702 2.115986 -4.463088 0.000000 0.000000 0.000000 -107.662462 41.165939 127.346500 0.000023 29.080678 -0.000021 0.000000 0.000000 0.000000 
2.157255 83.287262 -128.351318 0.000000 0.000000 0.000000 153.856855 -81.643580 148.296685 -55.263740 -17.330855 30.261133 35.370418 -7.362225 -0.227850 25.082038 0.199789 -5.669392 -1.075284 0.052317 -2.786051 0.000000 0.000000 0.000000 153.856855 -81.643580 148.296685 -60.902092 0.168418 -15.754668 65.557904 0.342482 -0.099250 0.161624 -0.503595 9.688663 -10.399929 0.000001 0.000004 0.000000 0.000000 0.000000 153.856855 -81.643580 148.296685 4.907782 10.813801 0.446760 6.079592 5.798286 -0.521031 0.000000 0.000000 0.000000 0.000000 0.000000 0.000000 5.085131 16.136091 1.189172 6.289636 5.421245 -4.908948 -11.393614 17.889724 5.359085 0.000000 0.000000 0.000000 5.085131 16.136091 1.189172 3.544246 4.756020 -11.623019 0.000000 0.000000 0.000000 -54.038841 -33.116452 -50.381552 -0.000050 -81.882384 -0.000089 0.000000 0.000000 0.000000 5.085131 16.136091 1.189172 -14.733702 2.115986 -4.463088 0.000000 0.000000 0.000000 -107.662462 41.165939 127.346500 0.000023 29.080678 -0.000021 0.000000 0.000000 0.000000 
